<svg xmlns="http://www.w3.org/2000/svg" width="900" height="1200" viewBox="0 0 900 1200" role="img" aria-label="Woven textile wall panel made in a community workshop">
<defs><linearGradient id="bg" x1="0" y1="0" x2="0" y2="1"><stop offset="0" stop-color="#f2eee5"/><stop offset="1" stop-color="#d7cec0"/></linearGradient><pattern id="weave" width="48" height="48" patternUnits="userSpaceOnUse"><path d="M0 12h48M0 36h48" stroke="#7b7367" stroke-width="9" opacity=".5"/><path d="M12 0v48M36 0v48" stroke="#bf7c23" stroke-width="10" opacity=".85"/></pattern></defs>
<rect width="900" height="1200" fill="url(#bg)"/><rect x="185" y="190" width="530" height="760" rx="18" fill="#faf8f2" stroke="#27322d" stroke-width="20"/><rect x="235" y="245" width="430" height="650" fill="url(#weave)"/><path d="M235 515c120-115 200 118 315 0s115 15 115 15v365H235z" fill="#506655" opacity=".38"/><path d="M230 970h440" stroke="#27322d" stroke-width="22" stroke-linecap="round"/><g stroke="#27322d" stroke-width="14"><path d="M260 970v105M320 970v105M380 970v105M440 970v105M500 970v105M560 970v105M620 970v105"/></g>
</svg>
